<svg xmlns="http://www.w3.org/2000/svg" viewbox="0 0 512 512" width="512" height="512" fill="#be91f2">
    <path transform="translate(100 98)" d="M 315.969 135.186C 314.722 129.512 311.186 124.243 307.152 122.046C 305.91 121.37 297.956 120.508 289.475 120.131C 275.264 119.499 273.674 119.222 269.189 116.588C 262.074 112.411 260.114 107.901 260.095 95.6545C 260.058 72.2565 250.338 50.5345 231.132 30.9295C 217.45 16.9625 202.187 7.50851 184.768 2.21051C 180.598 0.942512 171.26 0.510512 139.984 0.140512C 90.909 -0.440488 80.015 0.567514 63.308 7.23351C 32.507 19.5235 10.375 45.4255 2.30198 78.6315C 0.785982 84.8685 0.490984 94.8635 0.132984 152.283C -0.316016 224.217 0.178981 234.78 4.66598 249.036C 8.37298 260.813 12.113 268.031 19.819 278.274C 34.498 297.789 56.497 311.883 78.491 315.864C 88.958 317.758 218.093 318.232 231.319 316.425C 254.32 313.282 272.344 304.047 289.253 286.741C 301.486 274.222 309.143 260.671 314.147 242.687C 316.226 235.216 316.4 231.579 316.781 187.713C 317.071 154.606 316.831 139.1 315.969 135.186ZM 88.09 90.0635C 93.614 84.4765 95.141 84.2645 129.716 84.2645C 160.756 84.2645 161.799 84.3325 166.359 86.6395C 172.948 89.9735 175.811 94.6755 175.811 102.161C 175.811 108.921 173.122 113.659 167.125 117.466C 163.905 119.51 161.98 119.638 131.568 119.817C 112.789 119.927 97.829 119.568 95.6 118.953C 83.841 115.705 79.448 98.8045 88.09 90.0635ZM 223.735 231.746L 213.221 233.459L 158.424 234.101C 110.273 234.666 96.632 233.783 94.126 232.689C 89.079 230.486 84.378 224.366 83.566 218.939C 82.792 213.77 85.386 206.663 89.361 203.059C 94.372 198.516 96.571 198.365 158.195 198.316C 221.586 198.266 221.256 198.24 227.267 203.862C 235.757 211.803 233.966 225.941 223.735 231.746Z" />
</svg>